<mxfile host="app.diagrams.net" modified="2020-12-22T07:49:32.041Z" agent="5.0 (Windows NT 10.0; Win64; x64) AppleWebKit/537.36 (KHTML, like Gecko) Chrome/87.0.4280.88 Safari/537.36 Edg/87.0.664.66" etag="zYJQEdmJZWcH_t7-sAiP" version="14.1.1" type="github">
  <diagram id="s8uIxDWAPQzP6aIuzZrn" name="第 1 页">
    <mxGraphModel dx="902" dy="524" grid="1" gridSize="10" guides="1" tooltips="1" connect="1" arrows="1" fold="1" page="1" pageScale="1" pageWidth="4681" pageHeight="3300" math="0" shadow="0">
      <root>
        <mxCell id="0" />
        <mxCell id="1" parent="0" />
        <mxCell id="qZydOTqYSD-dVVqWFDhd-25" value="" style="group;" vertex="1" connectable="0" parent="1">
          <mxGeometry x="820" y="440" width="60" height="390" as="geometry" />
        </mxCell>
        <mxCell id="qZydOTqYSD-dVVqWFDhd-12" value="" style="rounded=1;whiteSpace=wrap;html=1;sketch=0;rotation=90;" vertex="1" parent="qZydOTqYSD-dVVqWFDhd-25">
          <mxGeometry x="-165" y="165" width="390" height="60" as="geometry" />
        </mxCell>
        <mxCell id="qZydOTqYSD-dVVqWFDhd-24" value="SOI" style="text;html=1;strokeColor=none;fillColor=none;align=center;verticalAlign=middle;whiteSpace=wrap;rounded=0;sketch=0;" vertex="1" parent="qZydOTqYSD-dVVqWFDhd-25">
          <mxGeometry x="10" y="175" width="40" height="20" as="geometry" />
        </mxCell>
        <mxCell id="qZydOTqYSD-dVVqWFDhd-2" value="Veeva" style="rounded=1;whiteSpace=wrap;html=1;sketch=0;" vertex="1" parent="1">
          <mxGeometry x="690" y="457" width="110" height="40" as="geometry" />
        </mxCell>
        <mxCell id="qZydOTqYSD-dVVqWFDhd-5" value="TQM" style="rounded=1;whiteSpace=wrap;html=1;sketch=0;" vertex="1" parent="1">
          <mxGeometry x="690" y="520" width="110" height="40" as="geometry" />
        </mxCell>
        <mxCell id="qZydOTqYSD-dVVqWFDhd-6" value="ESM" style="rounded=1;whiteSpace=wrap;html=1;sketch=0;" vertex="1" parent="1">
          <mxGeometry x="690" y="580" width="110" height="40" as="geometry" />
        </mxCell>
        <mxCell id="qZydOTqYSD-dVVqWFDhd-35" value="" style="group;" vertex="1" connectable="0" parent="1">
          <mxGeometry x="910" y="440" width="60" height="390" as="geometry" />
        </mxCell>
        <mxCell id="qZydOTqYSD-dVVqWFDhd-36" value="" style="rounded=1;whiteSpace=wrap;html=1;sketch=0;rotation=90;" vertex="1" parent="qZydOTqYSD-dVVqWFDhd-35">
          <mxGeometry x="-165" y="165" width="390" height="60" as="geometry" />
        </mxCell>
        <mxCell id="qZydOTqYSD-dVVqWFDhd-37" value="EDW" style="text;html=1;strokeColor=none;fillColor=none;align=center;verticalAlign=middle;whiteSpace=wrap;rounded=0;sketch=0;" vertex="1" parent="qZydOTqYSD-dVVqWFDhd-35">
          <mxGeometry x="10" y="175" width="40" height="20" as="geometry" />
        </mxCell>
        <mxCell id="qZydOTqYSD-dVVqWFDhd-43" value="" style="group" vertex="1" connectable="0" parent="1">
          <mxGeometry x="1000" y="457" width="80" height="113" as="geometry" />
        </mxCell>
        <mxCell id="qZydOTqYSD-dVVqWFDhd-38" value="" style="outlineConnect=0;dashed=0;verticalLabelPosition=bottom;verticalAlign=top;align=center;html=1;shape=mxgraph.aws3.s3;fillColor=#E05243;gradientColor=none;rounded=0;sketch=0;" vertex="1" parent="qZydOTqYSD-dVVqWFDhd-43">
          <mxGeometry width="80" height="93" as="geometry" />
        </mxCell>
        <mxCell id="qZydOTqYSD-dVVqWFDhd-40" value="S3 Bucket" style="text;html=1;strokeColor=none;fillColor=none;align=center;verticalAlign=middle;whiteSpace=wrap;rounded=0;sketch=0;" vertex="1" parent="qZydOTqYSD-dVVqWFDhd-43">
          <mxGeometry x="9" y="93" width="62" height="20" as="geometry" />
        </mxCell>
        <mxCell id="qZydOTqYSD-dVVqWFDhd-46" value="" style="edgeStyle=elbowEdgeStyle;elbow=vertical;endArrow=classic;html=1;entryX=0.5;entryY=0;entryDx=0;entryDy=0;entryPerimeter=0;" edge="1" parent="1" source="qZydOTqYSD-dVVqWFDhd-11" target="qZydOTqYSD-dVVqWFDhd-38">
          <mxGeometry width="50" height="50" relative="1" as="geometry">
            <mxPoint x="940" y="360" as="sourcePoint" />
            <mxPoint x="990" y="310" as="targetPoint" />
            <Array as="points">
              <mxPoint x="1040" y="360" />
              <mxPoint x="950" y="340" />
            </Array>
          </mxGeometry>
        </mxCell>
        <mxCell id="qZydOTqYSD-dVVqWFDhd-47" value="" style="group" vertex="1" connectable="0" parent="1">
          <mxGeometry x="1000" y="310" width="61" height="78" as="geometry" />
        </mxCell>
        <mxCell id="qZydOTqYSD-dVVqWFDhd-11" value="" style="shape=image;html=1;verticalAlign=top;verticalLabelPosition=bottom;imageAspect=0;aspect=fixed;image=https://cdn2.iconfinder.com/data/icons/analytic-investment-and-balanced-scorecard/512/635_Bill_excel_file_invoice_statement-128.png;rounded=0;sketch=0;" vertex="1" parent="qZydOTqYSD-dVVqWFDhd-47">
          <mxGeometry width="58" height="58" as="geometry" />
        </mxCell>
        <mxCell id="qZydOTqYSD-dVVqWFDhd-44" value="IMS&amp;amp;CPA..." style="text;html=1;strokeColor=none;fillColor=none;align=center;verticalAlign=middle;whiteSpace=wrap;rounded=0;sketch=0;" vertex="1" parent="qZydOTqYSD-dVVqWFDhd-47">
          <mxGeometry y="58" width="61" height="20" as="geometry" />
        </mxCell>
      </root>
    </mxGraphModel>
  </diagram>
</mxfile>
